<svg height="512pt" viewBox="-87 0 512 512" width="512pt" xmlns="http://www.w3.org/2000/svg"><path d="m313.089844 241.054688h-82.203125l-2.316407 37.945312h86.835938zm0 0" fill="#ff8243"/><path d="m299.664062 241.054688v-101.40625c0-31.714844-24.089843-57.800782-54.96875-60.960938 0-.105469.003907-.214844.003907-.320312 0-39.140626-31.730469-70.867188-70.867188-70.867188-30.492187 0-56.484375 19.257812-66.480469 46.273438-4.171874-2.410157-9.007812-3.792969-14.171874-3.792969-15.675782 0-28.386719 12.707031-28.386719 28.386719 0 .042968.003906.085937.003906.132812-31.988281 2.050781-57.296875 28.640625-57.296875 61.148438 0 24.011718 19.46875 43.480468 43.480469 43.480468h168.617187c13.804688 0 25 11.191406 25 25v32.925782zm0 0" fill="#787680"/><path d="m154.480469 281.625-94.902344 164.375c-6.15625 10.667969 1.542969 24 13.859375 24h189.800781c12.316407 0 20.015625-13.332031 13.855469-24l-94.898438-164.375c-6.160156-10.664062-21.554687-10.664062-27.714843 0zm0 0" fill="#ffe477"/><path d="m200.699219 411.824219h-24.722657l-2.328124-68.40625h29.378906zm0 0" fill="#ffb655"/><path d="m174.207031 411.824219h28.261719v28.261719h-28.261719zm0 0" fill="#ffb655"/><path d="m180.699219 411.824219h-24.722657l-2.328124-68.40625h29.378906zm0 0" fill="#787680"/><path d="m154.207031 411.824219h28.261719v28.261719h-28.261719zm0 0" fill="#787680"/><path d="m315.40625 279h-86.835938l-4.582031 75.015625 53.109375 91.984375c6.15625 10.667969-1.542968 24-13.859375 24h-46.332031l-2.105469 34.5h114.375zm0 0" fill="#c6c5ca"/><path d="m89.578125 446 93.761719-162.394531-1.144532-1.980469c-6.160156-10.664062-21.554687-10.664062-27.714843 0l-94.902344 164.375c-6.15625 10.667969 1.542969 24 13.859375 24h30c-12.316406 0-20.015625-13.332031-13.859375-24zm0 0" fill="#ffb655"/><path d="m230.886719 241.054688-2.316407 37.945312h30l2.316407-37.945312zm0 0" fill="#ed4726"/><path d="m37.5 139.648438c0-32.507813 25.308594-59.097657 57.296875-61.148438 0-.046875-.003906-.089844-.003906-.132812 0-15.675782 12.710937-28.386719 28.386719-28.386719 5.164062 0 10 1.386719 14.171874 3.792969 8.308594-22.453126 27.671876-39.535157 51.476563-44.667969-4.835937-1.042969-9.847656-1.601563-14.996094-1.601563-30.492187 0-56.484375 19.257813-66.480469 46.273438-4.171874-2.410156-9.007812-3.796875-14.167968-3.796875-15.679688 0-28.386719 12.710937-28.386719 28.386719v.132812c-31.984375 2.054688-57.296875 28.644531-57.296875 61.148438 0 24.015624 19.46875 43.480468 43.480469 43.480468h30c-24.011719 0-43.480469-19.46875-43.480469-43.480468zm0 0" fill="#57565c"/><path d="m263.238281 470h30c12.316407 0 20.015625-13.332031 13.855469-24l-53.105469-91.984375 4.582031-75.015625h-30l-4.582031 75.015625 53.109375 91.984375c6.15625 10.667969-1.542968 24-13.859375 24zm0 0" fill="#898890"/><path d="m216.90625 470-2.105469 34.5h30l2.105469-34.5zm0 0" fill="#898890"/><path d="m219.597656 190.628906c9.648438 0 17.5 7.851563 17.5 17.5v12.925782h15v-12.925782c0-17.921875-14.582031-32.5-32.5-32.5h-168.617187c-19.839844 0-35.980469-16.140625-35.980469-35.980468 0-28.28125 22.085938-51.851563 50.277344-53.664063l7.019531-.449219c0-.179687.003906-7.089844 0-7.265625.070313-16.058593 17.539063-25.953125 31.304687-18l7.699219 4.445313 3.085938-8.335938c9.15625-24.75 33.046875-41.378906 59.445312-41.378906 34.941407 0 63.367188 28.425781 63.367188 63.394531l-.035157 7.0625 6.769532.691407c27.496094 2.8125 48.234375 25.8125 48.234375 53.5v81.40625h15v-81.40625c0-33.191407-23.3125-61.117188-55.207031-67.445313-3.15625-40.339844-36.992188-72.203125-78.128907-72.203125-30.011719 0-57.402343 17.382812-70.425781 43.96875-20.609375-6.132812-41.625 7.148438-45.496094 27.757812-32.949218 5.246094-57.910156 33.925782-57.910156 67.921876 0 28.109374 22.871094 50.980468 50.980469 50.980468zm0 0"/><path d="m283.589844 442.25-94.898438-164.375c-9.050781-15.671875-31.65625-15.675781-40.703125 0l-94.902343 164.375c-9.046876 15.664062 2.246093 35.25 20.351562 35.25h189.800781c18.089844 0 29.40625-19.570312 20.351563-35.25zm-217.515625 7.5 94.902343-164.375c3.269532-5.664062 11.445313-5.675781 14.722657 0l94.902343 164.375c3.269532 5.664062-.808593 12.75-7.363281 12.75h-189.800781c-6.539062 0-10.640625-7.074219-7.363281-12.75zm0 0"/><path d="m145.890625 335.917969 2.328125 68.402343h-1.511719v43.261719h43.261719v-43.261719h-1.511719l2.328125-68.402343zm15.519531 15h13.855469l-1.816406 53.402343h-10.222657zm13.558594 81.664062h-13.261719v-13.261719h13.261719zm0 0"/><path d="m320.144531 233.554688h-96.3125l-5.117187 83.832031 14.96875.914062 1.945312-31.800781h72.722656l12.851563 210.5h-98.429687l.398437-6.542969-14.972656-.914062-1.371094 22.457031h130.320313zm-83.601562 37.945312 1.398437-22.945312h68.089844l1.402344 22.945312zm0 0"/><g fill="#fff"><path d="m295.117188 479.957031-5.046876-82.667969 14.96875-.910156 5.050782 82.664063zm-5.65625-92.648437-.914063-14.972656 14.96875-.914063.914063 14.972656zm-1.527344-24.953125-.914063-14.972657 14.972657-.914062.914062 14.972656zm0 0"/><path d="m282.167969 216.054688h-15v-76.40625c0-.871094-.039063-1.75-.117188-2.613282l14.941407-1.320312c.117187 1.300781.175781 2.625.175781 3.933594zm-16.882813-86.730469c-1.421875-3.734375-3.566406-7.074219-6.375-9.925781l10.683594-10.527344c4.277344 4.339844 7.546875 9.429687 9.710938 15.121094zm-12.640625-14.730469c-3.460937-1.960938-7.25-3.164062-11.257812-3.574219l1.527343-14.921875c6.082032.621094 11.847657 2.453125 17.125 5.445313zm0 0"/><path d="m241.15625 448.75-13.933594-24.128906 12.992188-7.5 13.929687 24.128906zm-18.933594-32.789062-7.5-12.992188 12.992188-7.5 7.5 12.992188zm-12.5-21.652344-7.5-12.988282 12.992188-7.5 7.5 12.988282zm0 0"/></g></svg>