<svg id="Capa_1" enable-background="new 0 0 512 512" height="512" viewBox="0 0 512 512" width="512" xmlns="http://www.w3.org/2000/svg"><g><path d="m96 109.67h320v344.83h-320z" fill="#b3e59f"/><path d="m96 109.67h50v344.83h-50z" fill="#95d6a4"/><g fill="#eefaff"><path d="m230.631 57.5h-90v-35c0-8.284 6.716-15 15-15h60c8.284 0 15 6.716 15 15z"/><path d="m371.369 57.5h-90v-35c0-8.284 6.716-15 15-15h60c8.284 0 15 6.716 15 15z"/></g><g fill="#dff1f7"><path d="m185.63 7.5c-8.28 0-15 6.72-15 15v35h-30v-35c0-8.28 6.72-15 15-15z"/><path d="m326.37 7.5c-8.28 0-15 6.72-15 15v35h-30v-35c0-8.28 6.72-15 15-15z"/></g><path d="m416 72.5v37.17h-320v-37.17c0-8.28 6.72-15 15-15h290c8.28 0 15 6.72 15 15z" fill="#548eb5"/><path d="m161 57.5c-8.28 0-15 6.72-15 15v37.17h-50v-37.17c0-8.28 6.72-15 15-15z" fill="#447d99"/><path d="m96 454.5h320v35c0 8.28-6.72 15-15 15h-290c-8.28 0-15-6.72-15-15z" fill="#548eb5"/><path d="m161 504.5h-50c-8.28 0-15-6.72-15-15v-35h50v35c0 8.28 6.72 15 15 15z" fill="#447d99"/><g><path d="m256 381v-78.884h-80.178l80.178-131.116v78.971h80.178z" fill="#fdf172"/></g><g><g><path d="m248.5 381v-71.385h-72.678c-7.308-.449-9.489-4.782-6.398-11.413l80.178-131.115c4.398-6.087 13.731-6.42 13.898 3.913v71.471h72.678c6.592 1.306 8.724 5.111 6.397 11.415l-80.178 131.029c-5.564 8.585-13.73 6.252-13.897-3.915zm-59.3-86.385h66.8c4.143 0 7.5 3.357 7.5 7.5v52.259l59.296-96.903h-66.796c-4.142 0-7.5-3.357-7.5-7.5v-52.33z"/></g></g><path d="m401 50h-22.131v-27.5c0-12.406-10.094-22.5-22.5-22.5h-60c-12.406 0-22.5 10.094-22.5 22.5v27.5h-35.738v-27.5c0-12.406-10.093-22.5-22.5-22.5h-60c-12.407 0-22.5 10.094-22.5 22.5v27.5h-22.131c-12.407 0-22.5 10.094-22.5 22.5v89.91c0 4.143 3.358 7.5 7.5 7.5s7.5-3.357 7.5-7.5v-45.24h226.5c4.143 0 7.5-3.357 7.5-7.5s-3.357-7.5-7.5-7.5h-226.5v-29.67c0-4.136 3.364-7.5 7.5-7.5h290c4.136 0 7.5 3.364 7.5 7.5v29.67h-45.81c-4.143 0-7.5 3.357-7.5 7.5s3.357 7.5 7.5 7.5h45.81v329.83h-206.53c-4.142 0-7.5 3.357-7.5 7.5s3.358 7.5 7.5 7.5h206.53v27.5c0 4.136-3.364 7.5-7.5 7.5h-290c-4.136 0-7.5-3.364-7.5-7.5v-27.5h65.79c4.142 0 7.5-3.357 7.5-7.5s-3.358-7.5-7.5-7.5h-65.79v-251.9c0-4.143-3.358-7.5-7.5-7.5s-7.5 3.357-7.5 7.5v294.4c0 12.406 10.093 22.5 22.5 22.5h290c12.406 0 22.5-10.094 22.5-22.5v-417c0-12.406-10.094-22.5-22.5-22.5zm-252.869 0v-27.5c0-4.136 3.364-7.5 7.5-7.5h60c4.136 0 7.5 3.364 7.5 7.5v27.5zm140.738 0v-27.5c0-4.136 3.364-7.5 7.5-7.5h60c4.136 0 7.5 3.364 7.5 7.5v27.5z"/></g></svg>