<?xml version="1.0" encoding="iso-8859-1"?>
<!-- Generator: Adobe Illustrator 19.0.0, SVG Export Plug-In . SVG Version: 6.00 Build 0)  -->
<svg version="1.1" id="Capa_1" xmlns="http://www.w3.org/2000/svg" xmlns:xlink="http://www.w3.org/1999/xlink" x="0px" y="0px"
	 viewBox="0 0 511.915 511.915" style="enable-background:new 0 0 511.915 511.915;" xml:space="preserve">
<g>
	<path style="fill:#E57E25;" d="M365.455,5.099l140.07,138.448c3.33,3.292,5.216,7.771,5.244,12.454l1.147,196.941
		c0.027,4.682-1.807,9.184-5.098,12.514L368.369,505.525c-3.292,3.33-7.771,5.216-12.454,5.244l-196.941,1.147
		c-4.682,0.027-9.184-1.807-12.514-5.098L6.391,368.369c-3.33-3.292-5.216-7.771-5.244-12.454L0,158.974
		c-0.027-4.682,1.807-9.184,5.098-12.514L143.546,6.391c3.292-3.33,7.771-5.216,12.454-5.244L352.941,0
		C357.623-0.027,362.125,1.807,365.455,5.099z"/>
	<path style="fill:#F0C419;" d="M36.286,344.786l-1.018-175.095c-0.014-2.341,0.903-4.592,2.549-6.257L160.902,38.908
		c1.646-1.665,3.886-2.608,6.227-2.622l175.095-1.018c2.341-0.014,4.592,0.903,6.257,2.549l124.526,123.085
		c1.665,1.646,2.608,3.886,2.622,6.227l1.019,175.095c0.014,2.341-0.903,4.592-2.549,6.257L351.013,473.007
		c-1.646,1.665-3.886,2.608-6.227,2.622l-175.095,1.019c-2.341,0.014-4.592-0.903-6.257-2.549L38.908,351.013
		C37.243,349.367,36.3,347.127,36.286,344.786z"/>
	<path style="fill:#5E5F62;" d="M383.078,378.16c-16.345-12.187-34.347-21.977-53.46-29.074c-0.585-5.338-1.049-10.384-1.391-14.61
		c11.575-9.544,16.688-24.858,13.17-39.442c24.529-11.621,38.117-48.45,38.147-70.68c0.026-15.246-6.211-20.828-11.478-22.836
		c-4.914-1.912-10.308-2.22-15.408-0.88c2.767-23.242-2.69-46.718-15.424-66.357c-15.336-20.948-40.836-31.569-75.802-31.569
		h-10.949c-34.965,0-60.466,10.621-75.802,31.569c-12.736,19.642-18.193,43.124-15.423,66.37c-5.111-1.341-10.514-1.033-15.439,0.88
		c-5.237,1.996-11.474,7.578-11.448,22.823c0.029,22.23,13.618,59.059,38.147,70.68c-3.507,14.525,1.551,29.78,13.04,39.334
		c-0.39,4.588-0.872,9.571-1.451,14.737c-19.096,7.095-37.081,16.879-53.413,29.055c-3.883,2.95-4.639,8.488-1.69,12.371
		c2.95,3.883,8.488,4.639,12.371,1.689c12.369-9.257,25.812-16.984,40.037-23.014c-0.501,4.431-1.588,8.777-3.231,12.923
		c-2.237,2.228-3.114,5.482-2.299,8.533c0.815,3.051,3.198,5.434,6.249,6.249c3.051,0.815,6.305-0.062,8.533-2.299
		c2.177-2.177,6.703-6.703,10.371-38.022l0.028-0.25l0.025-0.225c0.365-2.825,0.654-5.632,0.942-8.427
		c0.072,0.074,0.176,0.147,0.246,0.221c3.274,3.858,6.137,8.048,8.543,12.5c6.565,11.043,14.737,24.784,30.711,24.784h32.853
		c15.974,0,24.147-13.741,30.711-24.784c2.406-4.452,5.269-8.641,8.543-12.5l0.088-0.079c0.29,2.829,0.605,5.725,0.968,8.691
		c3.22,26.22,6.478,34.189,10.379,38.09c1.741,1.731,4.097,2.702,6.552,2.698c3.497,0.011,6.662-2.072,8.036-5.288
		c1.374-3.216,0.691-6.942-1.734-9.462c-1.853-4.237-3.042-8.735-3.524-13.335c14.208,6.026,27.637,13.747,39.993,22.994
		c2.512,1.908,5.85,2.331,8.759,1.11c2.908-1.221,4.944-3.901,5.341-7.03C386.893,383.171,385.59,380.068,383.078,378.16
		L383.078,378.16z M351.492,221.169c4.487-4.267,7.793-3.931,9.53-3.414c1.635,8.511,0.823,17.311-2.341,25.379
		c-3.242,12.132-9.704,23.161-18.702,31.921c0.554-13.532,2.748-26.947,6.534-39.95c0.213-0.671,1.678-5.483,3.171-12.796
		C350.333,222.007,350.94,221.624,351.492,221.169z M153.233,243.134c-3.161-8.069-3.973-16.868-2.341-25.379
		c1.763-0.513,5.065-0.832,9.53,3.414c0.552,0.453,1.159,0.835,1.807,1.137c1.493,7.314,2.959,12.128,3.172,12.798
		c3.804,13.002,6.002,26.421,6.544,39.958C162.942,266.303,156.476,255.27,153.233,243.134L153.233,243.134z M298.845,335.738
		c-4.209,4.798-7.873,10.047-10.927,15.651c-5.974,10.047-10,16.151-15.535,16.151h-32.853c-5.535,0-9.56-6.103-15.535-16.151
		c-3.054-5.604-6.718-10.853-10.927-15.651c-3.24-3.217-6.748-6.152-10.487-8.772c-10.297-7.655-17.733-13.181-14.621-29.547
		c2.939-22.701,0.984-45.768-5.732-67.651c-0.168-0.53-16.526-53.332,6.703-85.06c11.819-16.151,32.53-24.34,61.552-24.34h10.948
		c28.996,0,49.694,8.172,61.522,24.293c23.185,31.599,6.897,84.586,6.733,85.108c-6.717,21.883-8.671,44.95-5.733,67.651
		c3.112,16.366-4.323,21.892-14.621,29.547C305.594,329.586,302.085,332.521,298.845,335.738z"/>
	<g>
		<path style="fill:#ECF0F1;" d="M112.16,272.997c-3.449,0.001-6.583-2.005-8.026-5.138c-9.431-20.803-9.431-44.663,0-65.465
			c1.314-2.872,4.063-4.823,7.208-5.117c3.145-0.294,6.207,1.115,8.03,3.694c1.823,2.579,2.13,5.935,0.805,8.802
			c-7.282,16.118-7.282,34.589,0,50.707c1.258,2.733,1.038,5.918-0.585,8.452C117.97,271.465,115.169,272.997,112.16,272.997
			L112.16,272.997z"/>
		<path style="fill:#ECF0F1;" d="M86.121,299.035c-3.069,0.004-5.92-1.587-7.526-4.203c-22.46-36.638-22.46-82.78,0-119.418
			c1.652-2.686,4.612-4.286,7.764-4.198c3.152,0.088,6.018,1.851,7.517,4.625c1.5,2.774,1.406,6.137-0.247,8.823
			c-18.966,30.966-18.966,69.952,0,100.918c1.674,2.722,1.746,6.137,0.188,8.927C92.261,297.3,89.317,299.031,86.121,299.035z"/>
		<path style="fill:#ECF0F1;" d="M399.755,272.997c-3.009,0-5.81-1.532-7.433-4.066c-1.623-2.533-1.843-5.719-0.585-8.452
			c7.282-16.118,7.282-34.589,0-50.707c-2.027-4.428-0.085-9.661,4.339-11.696c4.424-2.035,9.661-0.104,11.704,4.317
			c9.431,20.803,9.431,44.663,0,65.465C406.339,270.992,403.204,272.998,399.755,272.997z"/>
		<path style="fill:#ECF0F1;" d="M425.794,299.035c-3.196-0.004-6.14-1.735-7.697-4.526c-1.558-2.79-1.485-6.205,0.188-8.927
			c18.966-30.966,18.966-69.952,0-100.918c-2.535-4.15-1.235-9.57,2.907-12.118c4.142-2.549,9.566-1.266,12.127,2.868
			c22.46,36.638,22.46,82.78,0,119.418C431.713,297.448,428.863,299.04,425.794,299.035z"/>
	</g>
</g>
<g>
</g>
<g>
</g>
<g>
</g>
<g>
</g>
<g>
</g>
<g>
</g>
<g>
</g>
<g>
</g>
<g>
</g>
<g>
</g>
<g>
</g>
<g>
</g>
<g>
</g>
<g>
</g>
<g>
</g>
</svg>
